<svg xmlns="http://www.w3.org/2000/svg" width="22" height="21" viewBox="0 0 22 21">
    <path fill="#D62976" fill-rule="evenodd" d="M16.458 3.635a1.26 1.26 0 1 0 0 2.52 1.26 1.26 0 0 0 0-2.52M10.853 14a3.5 3.5 0 1 1 0-7 3.5 3.5 0 0 1 0 7m0-8.892a5.392 5.392 0 1 0 0 10.784 5.392 5.392 0 0 0 0-10.784m8.547 9.635c-.047 1.023-.218 1.58-.361 1.95-.19.49-.419.839-.786 1.207a3.25 3.25 0 0 1-1.207.785c-.37.144-.926.315-1.95.362-1.107.05-1.44.06-4.243.06-2.804 0-3.136-.01-4.243-.06-1.024-.047-1.58-.218-1.95-.362-.49-.19-.84-.418-1.207-.785a3.258 3.258 0 0 1-.786-1.208c-.143-.37-.314-.926-.36-1.95-.052-1.106-.062-1.438-.062-4.242 0-2.804.01-3.136.061-4.243.047-1.024.218-1.58.361-1.95.191-.49.419-.84.786-1.207a3.251 3.251 0 0 1 1.207-.785c.37-.144.926-.315 1.95-.362 1.107-.05 1.44-.061 4.243-.061 2.804 0 3.136.01 4.243.061 1.024.047 1.58.218 1.95.362.49.19.84.418 1.207.785.367.368.595.718.786 1.207.143.37.314.926.36 1.95.051 1.107.062 1.44.062 4.243 0 2.804-.01 3.136-.061 4.243m1.89-8.572c-.051-1.118-.229-1.881-.488-2.549a5.146 5.146 0 0 0-1.211-1.86 5.152 5.152 0 0 0-1.86-1.21C17.063.291 16.3.113 15.18.062 14.063.013 13.706 0 10.854 0 8 0 7.643.012 6.524.063 5.406.114 4.643.292 3.975.551a5.152 5.152 0 0 0-1.86 1.211 5.152 5.152 0 0 0-1.21 1.86C.644 4.29.466 5.053.415 6.171.365 7.29.353 7.649.353 10.5s.012 3.21.063 4.33c.051 1.116.229 1.88.488 2.548a5.15 5.15 0 0 0 1.211 1.86c.584.583 1.17.942 1.86 1.21.668.26 1.431.438 2.549.488 1.12.051 1.477.064 4.329.064 2.852 0 3.21-.013 4.329-.064 1.118-.05 1.88-.228 2.549-.487a5.148 5.148 0 0 0 1.86-1.212 5.144 5.144 0 0 0 1.21-1.86c.26-.667.438-1.43.489-2.548.051-1.12.063-1.478.063-4.33 0-2.85-.012-3.208-.063-4.328"/>
</svg>
