<svg xmlns="http://www.w3.org/2000/svg" width="23" height="18" viewBox="0 0 23 18">
    <path fill="#1DA1F3" fill-rule="evenodd" d="M7.051 17.53c8.391 0 12.98-6.655 12.98-12.425 0-.19 0-.377-.013-.565a9.079 9.079 0 0 0 2.276-2.26 9.43 9.43 0 0 1-2.62.687A4.424 4.424 0 0 0 21.68.552a9.413 9.413 0 0 1-2.898 1.06c-1.727-1.759-4.617-1.844-6.454-.19-1.185 1.067-1.687 2.656-1.32 4.172C7.341 5.42 3.923 3.76 1.607 1.032.396 3.027 1.014 5.58 3.019 6.861a4.682 4.682 0 0 1-2.07-.546v.055c0 2.079 1.531 3.869 3.66 4.28-.672.176-1.377.201-2.06.075.597 1.78 2.31 2.998 4.261 3.033a9.413 9.413 0 0 1-5.665 1.873 9.61 9.61 0 0 1-1.086-.063 13.336 13.336 0 0 0 6.992 1.958"/>
</svg>
