<svg xmlns="http://www.w3.org/2000/svg" width="90" height="74" viewBox="0 0 90 74">
    <g fill="#131114" fill-rule="evenodd">
        <path d="M10.346 20.585H1.73c-.99 0-1.712-.753-1.73-1.771-.01-.643.16-1.195.667-1.603.36-.29.787-.358 1.233-.358 2.73.002 5.461-.002 8.191.006.248.001.316-.062.323-.321.041-1.474.09-2.95.166-4.422.066-1.304.16-2.605.259-3.907.09-1.202.186-2.403.305-3.601.092-.93.89-1.491 1.62-1.584.544-.068 1.072-.007 1.505.385.407.37.523.854.482 1.392-.117 1.555-.249 3.108-.343 4.663-.116 1.926-.2 3.854-.297 5.782-.022.437-.028.877-.064 1.313-.02.236.055.301.284.3 1.98-.008 3.96-.003 5.94-.006.645 0 1.196.191 1.572.766.498.762.438 2.21-.598 2.75-.24.126-.53.204-.799.206-2.045.017-4.092.01-6.138.01h-.315c-.007.124-.019.222-.019.32.01 1.57.008 3.14.037 4.708.029 1.51.084 3.018.144 4.526.048 1.221.108 2.443.185 3.662.084 1.328.171 2.657.295 3.982.185 1.989.395 3.974.612 5.958.141 1.289.299 2.576.473 3.86.148 1.092.291 2.188.502 3.269.33 1.707.66 3.418 1.092 5.1.384 1.5.865 2.977 1.377 4.437a28.006 28.006 0 0 0 2.346 4.998c1.04 1.756 2.248 3.383 3.697 4.812.253.252.528.482.766.747.73.817.615 1.67-.05 2.416-.521.585-1.215.746-1.946.526-.306-.092-.595-.319-.837-.546a25.511 25.511 0 0 1-3.75-4.458 31.98 31.98 0 0 1-2.182-3.846c-.724-1.506-1.367-3.045-1.875-4.64-.386-1.212-.772-2.427-1.091-3.659-.356-1.372-.65-2.762-.945-4.15a45.094 45.094 0 0 1-.445-2.478c-.18-1.146-.35-2.295-.494-3.448a162.481 162.481 0 0 1-.453-4.04c-.154-1.551-.29-3.105-.42-4.658a147.95 147.95 0 0 1-.293-3.957 154.877 154.877 0 0 1-.22-4.9c-.07-2.722-.104-5.445-.152-8.169-.003-.109-.001-.216-.001-.372M90 25.684c-.043 2.647-.053 4.684-.117 6.721-.051 1.637-.15 3.272-.26 4.906-.11 1.641-.257 3.28-.394 4.919a90.788 90.788 0 0 1-.218 2.345c-.1.913-.222 1.824-.335 2.735-.091.736-.173 1.474-.28 2.206a309.05 309.05 0 0 1-.66 4.395c-.2 1.247-.41 2.492-.644 3.732-.249 1.32-.53 2.634-.8 3.95-.162.787-.32 1.577-.5 2.362-.29 1.265-.59 2.527-.898 3.788a58.4 58.4 0 0 1-.54 2.037c-.287 1.016-1.227 1.427-2.13 1.12-.6-.203-1.026-.601-1.184-1.29-.102-.438.012-.856.114-1.27.212-.86.45-1.715.663-2.575.202-.821.395-1.646.579-2.473.228-1.033.452-2.066.659-3.104.304-1.522.602-3.046.883-4.574.238-1.305.458-2.615.669-3.927.137-.855.248-1.716.362-2.576.177-1.344.354-2.69.518-4.035.087-.72.152-1.443.22-2.167.12-1.233.25-2.466.345-3.702.094-1.211.162-2.425.223-3.64.08-1.611.172-3.223.206-4.835.047-2.163.055-4.327.056-6.491 0-1.175-.04-2.35-.078-3.523-.031-1.004-.088-2.008-.12-3.012-.044-1.314 1.11-1.907 2.07-1.646.687.187 1.148.62 1.31 1.371.071.333.078.686.088 1.03.074 2.61.14 5.22.193 7.223M48 36.002V17.819c.001-.88.44-1.502 1.21-1.728.9-.263 1.814.055 2.208.817.134.258.206.578.206.87.011 5.552.008 11.104.008 16.655v18.603c0 .329.014.35.345.35 1.578.002 3.157.02 4.733-.005 1.28-.02 2.56-.091 3.839-.145.237-.01.473-.05.71-.064.866-.048 1.545.49 1.71 1.35.165.873-.338 1.88-1.042 2.12a3.56 3.56 0 0 1-1.032.193c-2.538.068-5.074.132-7.612.163-1.124.014-2.248-.062-3.373-.081-.875-.016-1.532-.704-1.667-1.488-.028-.168-.096-.328-.125-.495-.048-.273-.113-.548-.113-.823C48 48.075 48 42.038 48 36.001M63.01 25.468c0-2.524.023-5.049-.01-7.571-.016-1.254.895-2.038 1.992-1.876.71.105 1.202.492 1.407 1.249.049.183.053.383.053.576.003 4.362.002 8.724.002 13.085 0 .338.001.339.308.339 2.162 0 4.326.005 6.489-.003.592-.002 1.094.177 1.442.72.577.905.383 2.64-.939 2.969-.113.029-.232.04-.349.04-2.625.003-5.25.009-7.876-.004a5.707 5.707 0 0 1-1.3-.14c-.775-.186-1.218-.84-1.218-1.711-.002-2.558 0-5.115-.001-7.673M37.834 30.24c-.697.669-1.542 1.113-2.575 1.184-.879.06-1.667-.21-2.376-.65-1.486-.918-2.388-2.204-2.777-3.813-.237-.981-.339-1.967-.233-2.962.124-1.148.446-2.24 1.275-3.146.54-.59 1.22-.967 2.047-1.15 2.075-.459 4.71.622 5.823 2.265.72 1.063 1.048 2.047 1.048 3.738-.048 1.482-.787 3.15-2.232 4.534m6.147-5.715a8.218 8.218 0 0 0-1.02-3.51c-.8-1.434-1.938-2.589-3.412-3.47-1.65-.987-3.46-1.465-5.597-1.545-.299.036-.777.085-1.253.157-1.942.293-3.504 1.178-4.685 2.616-1.35 1.645-1.883 3.552-1.996 5.575a11.318 11.318 0 0 0 .68 4.544c.227.623.535 1.229.886 1.802.64 1.048 1.51 1.928 2.543 2.669 1.142.818 2.42 1.371 3.852 1.569.8.11 1.605.084 2.412-.06a8.029 8.029 0 0 0 3.513-1.549c1.552-1.178 2.608-2.678 3.308-4.4.575-1.417.868-2.88.769-4.398M86.512 5.81c-.105.606-.492 1.03-.984 1.362-.358.242-.749.395-1.19.39-.831-.026-1.387-.484-1.713-1.2-.374-.824-.321-1.638.247-2.381.323-.424.787-.56 1.278-.601 1.279-.108 2.589 1.114 2.362 2.43m3.273-1.923v-.003l-.001-.002a4.464 4.464 0 0 0-.264-.69l-.003-.008c-.026-.052-.051-.104-.078-.155l-.028-.051c-.022-.037-.042-.076-.063-.113l-.002-.004-.055-.088a4.255 4.255 0 0 0-.313-.437C87.52.556 85.66-.244 83.358.064a4.801 4.801 0 0 0-2.321.958c-1.096.837-1.71 1.965-1.939 3.288-.245 1.41-.034 2.767.672 4.042a5.155 5.155 0 0 0 6.029 2.42c1.317-.402 2.377-1.146 3.172-2.264.135-.19.261-.385.375-.585.59-.84.884-2.52.44-4.036"/>
    </g>
</svg>
