<svg xmlns="http://www.w3.org/2000/svg" width="160" height="36" viewBox="0 0 160 36">
    <g fill="none" fill-rule="evenodd">
        <path fill="#131114" d="M141 35.983V36H15V0h126v.227c2.483.385 5.01 1.253 7.462 2.564 9.027 4.83 13.584 13.838 8.578 23.075-3.358 6.196-9.582 9.844-16.04 10.117z"/>
        <path fill="#FFF" d="M26.462 2.791C17.434-2.038 7.356-.862 2.35 8.375-2.658 17.614.602 29.017 9.63 33.848c9.026 4.83 20.403 1.257 25.41-7.982 5.006-9.237.449-18.245-8.578-23.075"/>
        <path fill="#131114" d="M21.6 18.163zm-6.349 5.995a1.27 1.27 0 0 1-.649-.156c-.83-.358-1.032-1.391-1.111-1.798-.299-1.54-.436-8.128.905-9.16 2.27-1.746 9.012 4.557 9.078 4.622.218.214.341.508.341.814 0 .456 0 1.523-4.272 3.955-2.43 1.385-3.632 1.723-4.292 1.723z"/>
    </g>
</svg>
